<?xml version="1.0" encoding="UTF-8" standalone="no"?>
<!-- Created with Inkscape (http://www.inkscape.org/) -->

<svg
   width="64"
   height="64"
   viewBox="0 0 16.933333 16.933333"
   version="1.1"
   id="svg1"
   xml:space="preserve"
   inkscape:version="1.4.4 (dcaf3e7d9e, 2026-05-05)"
   sodipodi:docname="amethyst-icon-colorful.svg"
   xmlns:inkscape="http://www.inkscape.org/namespaces/inkscape"
   xmlns:sodipodi="http://sodipodi.sourceforge.net/DTD/sodipodi-0.dtd"
   xmlns="http://www.w3.org/2000/svg"
   xmlns:svg="http://www.w3.org/2000/svg"><sodipodi:namedview
     id="namedview1"
     pagecolor="#ffffff"
     bordercolor="#000000"
     borderopacity="0.25"
     inkscape:showpageshadow="2"
     inkscape:pageopacity="0.0"
     inkscape:pagecheckerboard="0"
     inkscape:deskcolor="#d1d1d1"
     inkscape:document-units="mm"
     inkscape:zoom="4.7592947"
     inkscape:cx="28.470605"
     inkscape:cy="42.128091"
     inkscape:window-width="1920"
     inkscape:window-height="1012"
     inkscape:window-x="0"
     inkscape:window-y="0"
     inkscape:window-maximized="1"
     inkscape:current-layer="layer1" /><defs
     id="defs1"><inkscape:path-effect
       effect="fillet_chamfer"
       id="path-effect7"
       is_visible="true"
       lpeversion="1"
       nodesatellites_param="F,0,0,1,0,0.52916667,0,1 @ F,0,0,1,0,0,0,1 @ F,0,0,1,0,0.52916666,0,1 @ F,0,0,1,0,0,0,1"
       radius="2"
       unit="px"
       method="auto"
       mode="F"
       chamfer_steps="1"
       flexible="false"
       use_knot_distance="true"
       apply_no_radius="true"
       apply_with_radius="true"
       only_selected="false"
       hide_knots="false" /><inkscape:path-effect
       effect="fillet_chamfer"
       id="path-effect6"
       is_visible="true"
       lpeversion="1"
       nodesatellites_param="F,0,0,1,0,0.52916667,0,1 @ F,0,0,1,0,0,0,1 @ F,0,0,1,0,0.52916666,0,1 @ F,0,0,1,0,0,0,1"
       radius="2"
       unit="px"
       method="auto"
       mode="F"
       chamfer_steps="1"
       flexible="false"
       use_knot_distance="true"
       apply_no_radius="true"
       apply_with_radius="true"
       only_selected="false"
       hide_knots="false" /><inkscape:path-effect
       effect="fillet_chamfer"
       id="path-effect5"
       is_visible="true"
       lpeversion="1"
       nodesatellites_param="F,0,0,1,0,0.89918981,0,1 @ F,0,0,1,0,0,0,1 @ F,0,0,1,0,0.52916666,0,1 @ F,0,0,1,0,0,0,1"
       radius="2"
       unit="px"
       method="auto"
       mode="F"
       chamfer_steps="1"
       flexible="false"
       use_knot_distance="true"
       apply_no_radius="true"
       apply_with_radius="true"
       only_selected="false"
       hide_knots="false" /><inkscape:path-effect
       effect="bend_path"
       id="path-effect4"
       is_visible="true"
       lpeversion="1"
       bendpath="M 15.404281,8.5698051 H 20.93807"
       prop_scale="1"
       scale_y_rel="false"
       vertical="false"
       hide_knot="false" /><inkscape:path-effect
       effect="fillet_chamfer"
       id="path-effect5-6"
       is_visible="true"
       lpeversion="1"
       nodesatellites_param="F,0,0,1,0,0.89918981,0,1 @ F,0,0,1,0,0.89918981,0,1 @ F,0,0,1,0,0,0,1 @ F,0,0,1,0,0.89918981,0,1 @ F,0,0,1,0,0,0,1 @ F,0,0,1,0,0.89918981,0,1"
       radius="2"
       unit="px"
       method="auto"
       mode="F"
       chamfer_steps="1"
       flexible="false"
       use_knot_distance="true"
       apply_no_radius="true"
       apply_with_radius="true"
       only_selected="false"
       hide_knots="false" /></defs><g
     inkscape:label="Layer 1"
     inkscape:groupmode="layer"
     id="layer1"><g
       id="g1"
       transform="matrix(0.70998329,0,0,0.70998329,27.302801,-4.4834746)"><path
         id="rect1"
         style="fill:#7d7373;stroke-width:0.223251"
         d="m -32.675205,26.719765 c 0.1881,0.397381 0.376201,0.794761 0.564301,1.192142 3.812195,0 7.624389,0 11.436584,0 0.182562,-0.397381 0.365125,-0.794761 0.547687,-1.192142 -4.182857,0 -8.365715,0 -12.548572,0 z" /><path
         id="path3-0"
         style="fill:#9c25cd;fill-opacity:1;stroke-width:0.172406"
         inkscape:transform-center-x="-0.71442899"
         inkscape:transform-center-y="-0.055575977"
         d="m 18.633726,6.5968509 c 0.807892,1.3362321 1.573004,2.6968588 2.304344,4.0767441 -0.800212,0.07651 -1.600519,0.201453 -2.400718,0.270903 -0.290487,0.02521 -0.761961,0.0088 -1.052195,-0.02545 l -2.080876,-0.245721 c 0.868884,-1.3746736 1.753101,-2.7386435 2.658621,-4.0892922 0.162744,-0.2427437 0.419617,-0.2372728 0.570824,0.01282 z"
         inkscape:path-effect="#path-effect6"
         inkscape:original-d="m 18.358318,6.1450032 c 0.910028,1.4809555 1.765806,2.9928462 2.579752,4.5285918 -0.975781,0.0933 -1.951703,0.258609 -2.927398,0.307505 -0.868797,-0.102592 -1.737594,-0.205185 -2.606391,-0.307777 0.963129,-1.5237798 1.945098,-3.0344081 2.954037,-4.5283198 z"
         transform="matrix(1.0095834,0,0,1.046566,-44.746221,1.8643779)" /><rect
         style="fill:#9c25cd;fill-opacity:1;stroke-width:0.267648"
         id="rect3"
         width="5.5867929"
         height="13.674302"
         x="-29.194313"
         y="13.045464" /><path
         id="rect2"
         style="fill:#a62cd9;fill-opacity:1;stroke-width:0.309282"
         d="m -32.648451,15.098861 c -0.02329,-0.132046 0.296738,0.563959 0.453554,0.763355 2.170869,3.638839 4.317927,7.29696 6.503665,10.92376 0.06602,-0.08004 -0.479637,0.0014 -0.739611,-0.02969 -2.079095,-0.0078 -4.15819,-0.01557 -6.237285,-0.02335 -1.588313,-2.957227 -3.176625,-5.914455 -4.764938,-8.871682 -0.132502,0.02252 0.567755,-0.290257 0.768971,-0.443965 1.338548,-0.772809 2.677096,-1.545619 4.015644,-2.318428 z" /><path
         id="path3"
         style="fill:#a62cd9;fill-opacity:1;stroke-width:0.160415"
         inkscape:transform-center-x="-0.67649782"
         inkscape:transform-center-y="-0.079951864"
         d="m 4.2438677,11.626082 c 1.3081729,0.87436 2.6129152,1.753815 3.9142245,2.638367 -0.8185269,0.529564 -1.6075727,1.109957 -2.4734582,1.55787 -0.2578262,0.13337 -0.6854772,0.333909 -0.9463913,0.465569 L 4.0649799,16.627623 C 3.9822986,15.038871 3.9035299,13.44994 3.8285828,11.860809 3.8148149,11.568883 4.0008931,11.463682 4.2438677,11.626082 Z"
         inkscape:path-effect="#path-effect7"
         inkscape:original-d="M 3.8037946,11.332223 C 5.2594707,12.30333 6.7109044,13.280737 8.1580922,14.264449 7.1927484,14.889 6.26841,15.584248 5.2106695,16.049497 4.828773,16.242206 4.4468764,16.434914 4.0649799,16.627623 3.9731314,14.86272 3.8861113,13.097597 3.8037946,11.332223 Z"
         transform="matrix(1.1689413,0,0,1.1689413,-42.184782,-1.5760933)" /><path
         id="rect2-7"
         style="fill:#8f22be;fill-opacity:1;stroke-width:0.309282"
         d="m -20.153387,15.09886 c 0.02329,-0.132045 -0.296738,0.563959 -0.453554,0.763355 -2.170867,3.63884 -4.317929,7.296955 -6.50366,10.92376 -0.06603,-0.08004 0.47964,0.0014 0.739607,-0.02969 2.079095,-0.0078 4.158189,-0.01557 6.237284,-0.02335 1.588313,-2.957227 3.176625,-5.914454 4.764938,-8.871681 0.132502,0.02252 -0.567755,-0.290258 -0.768971,-0.443965 -1.338548,-0.77281 -2.677096,-1.545619 -4.015644,-2.318429 z" /><path
         id="path3-9"
         style="fill:#8f22be;fill-opacity:1;stroke-width:0.264583"
         inkscape:transform-center-x="-0.71442933"
         inkscape:transform-center-y="-0.059774097"
         d="m 15.726339,10.642212 3.746139,6.488503 c -1.700999,0.08663 -3.401562,0.391744 -5.102993,0.261934 -0.291144,-0.02221 -0.762112,-0.0724 -1.053544,-0.09427 -0.744977,-0.05589 -1.489954,-0.111776 -2.234931,-0.167665 l 3.746139,-6.488503 a 0.51914752,0.51914752 180 0 1 0.89919,0 z"
         inkscape:path-effect="#path-effect5"
         inkscape:original-d="m 15.276744,9.8634911 c 1.398578,2.4224079 2.797156,4.8448159 4.195734,7.2672239 -1.876232,0.09555 -3.751933,0.456928 -5.628853,0.207254 -0.920872,-0.06909 -1.841743,-0.138169 -2.762615,-0.207254 1.398578,-2.422408 2.797156,-4.844816 4.195734,-7.2672239 z"
         transform="matrix(-0.57188946,-0.33013856,-0.33274487,0.6377896,-3.329921,10.593736)" /><path
         id="path4"
         style="fill-opacity:0.251221;stroke-width:0.264583"
         inkscape:transform-center-x="3.1296686"
         inkscape:transform-center-y="0.0065876919"
         d="m -32.675205,26.719765 c 4.362432,-2.188961 8.731911,-4.364134 13.048067,-6.643624 1.419456,-0.738294 2.838911,-1.476588 4.258366,-2.214882 -1.588313,2.957227 -3.176625,5.914454 -4.764938,8.871681 -4.180468,-0.02188 -8.36099,-0.01037 -12.541495,-0.01318 z" /></g></g></svg>
